<svg
  xmlns="http://www.w3.org/2000/svg"
  xmlns:xlink="http://www.w3.org/1999/xlink"
  version="1.1"
  id="Layer_1"
  x="0px"
  y="0px"
  width="36.865px"
  height="36.865px"
  viewBox="0 0 36.865 36.865"
  enable-background="new 0 0 36.865 36.865"
  xml:space="preserve"
>
  <g>
    <defs>
      <rect id="SVGID_1_" width="36.865" height="36.865" />
    </defs>
    <clipPath id="SVGID_2_">
      <use xlink:href="#SVGID_1_" overflow="visible" />
    </clipPath>
    <path
      clip-path="url(#SVGID_2_)"
      fill="#28A639"
      d="M36.864,18.433c0,10.18-8.252,18.432-18.432,18.432   C8.252,36.865,0,28.613,0,18.433S8.252,0.001,18.433,0.001C28.612,0.001,36.864,8.253,36.864,18.433"
    />
    <path
      clip-path="url(#SVGID_2_)"
      fill="#FFFFFF"
      d="M29.743,18.416c0-0.98,0.722-1.312,1.226-1.312c0.489,0,1.196,0.317,1.239,1.24   v1.239c-0.043,0.922-0.75,1.238-1.239,1.238c-0.504,0-1.226-0.33-1.226-1.311V18.416z M35.104,22.565v-6.485   c0-0.951-0.677-1.441-1.441-1.441c-0.575,0-1.109,0.274-1.34,0.807c-0.547-0.533-1.34-0.807-2.061-0.807   c-1.902,0-3.487,0.937-3.487,3.978v0.634c0,3.012,1.57,3.919,3.474,3.919c0.879,0,1.57-0.289,2.074-0.793v0.26   c0,0.648-0.533,1.297-1.758,1.297c-0.533,0-0.994-0.072-1.412-0.129c-0.49-0.073-0.966,0.23-1.139,0.691   c-0.188,0.504,0.029,1.123,0.461,1.384c0.477,0.273,1.557,0.418,2.09,0.389C34.442,26.11,35.104,24.15,35.104,22.565    M22.668,20.059c0,1.022-0.662,1.426-1.282,1.426c-0.619,0-1.282-0.403-1.282-1.426v-1.586c0-1.023,0.663-1.426,1.282-1.426   c0.62,0,1.282,0.403,1.282,1.426V20.059z M17.207,19.929c0,3.098,2.263,3.992,4.179,3.992c1.917,0,4.179-0.895,4.179-3.992v-1.326   c0-3.098-2.262-3.992-4.179-3.992c-1.96,0-4.179,0.894-4.179,3.992V19.929z M12.854,23.646h2.969V12.911   c0-0.995-0.678-1.441-1.485-1.441c-0.807,0-1.484,0.446-1.484,1.441V23.646z M8.474,20.116c0,0.979-0.735,1.312-1.239,1.312   c-0.505,0-1.254-0.332-1.254-1.312v-1.772c0.029-0.923,0.764-1.24,1.254-1.24c0.504,0,1.239,0.332,1.239,1.312V20.116z    M5.347,23.646l0.144-0.937c0.562,0.734,1.384,1.182,2.436,1.182c1.902,0,3.516-0.938,3.516-3.977v-1.297   c0-3.041-1.614-3.978-3.516-3.978c-0.793,0-1.442,0.26-1.946,0.677v-2.406c0-0.951-0.706-1.441-1.47-1.441s-1.455,0.49-1.455,1.441   v10.736H5.347z"
    />
  </g>
</svg>