<svg
  xmlns="http://www.w3.org/2000/svg"
  xmlns:xlink="http://www.w3.org/1999/xlink"
  version="1.1"
  id="Layer_1"
  x="0px"
  y="0px"
  width="433px"
  height="41px"
  viewBox="0 0 433 41"
  enable-background="new 0 0 433 41"
  xml:space="preserve"
>
  <g>
    <path
      fill="#231916"
      d="M26.676,9.827H0.098V3.82h9.375V0.498h7.828V3.82h9.375V9.827z M7.357,26.029   c-1.806-0.606-3.239-1.517-4.301-2.73c-1.063-1.213-1.593-2.67-1.593-4.369s0.53-3.155,1.593-4.369   c1.062-1.213,2.495-2.123,4.301-2.73c1.805-0.606,3.815-0.91,6.03-0.91c2.214,0,4.225,0.304,6.03,0.91   c1.805,0.607,3.238,1.518,4.301,2.73c1.062,1.214,1.593,2.67,1.593,4.369s-0.531,3.156-1.593,4.369   c-1.063,1.214-2.496,2.124-4.301,2.73c-1.806,0.607-3.816,0.91-6.03,0.91C11.172,26.939,9.162,26.637,7.357,26.029z M10.474,33.356   h27.034v6.69H2.646v-11.97h7.828V33.356z M10.065,17.178c-0.85,0.471-1.274,1.055-1.274,1.752c0,0.698,0.425,1.282,1.274,1.752   c0.849,0.471,1.957,0.705,3.322,0.705s2.473-0.234,3.322-0.705c0.849-0.47,1.274-1.054,1.274-1.752   c0-0.697-0.426-1.281-1.274-1.752c-0.85-0.471-1.957-0.706-3.322-0.706S10.914,16.707,10.065,17.178z M41.513,10.191v7.464h-4.551   v12.516H29.27V1.181h7.691v9.011H41.513z"
    />
    <path
      fill="#231916"
      d="M65.678,24.346H41.967V1.636h7.509v4.915h8.693V1.636h7.509V24.346z M51.115,33.129h27.034v6.918H43.287   V26.621h7.828V33.129z M58.169,17.929v-5.098h-8.693v5.098H58.169z M82.153,9.054v7.464h-4.551v13.426h-7.691V1.181h7.691v7.873   H82.153z"
    />
    <path
      fill="#231916"
      d="M121.065,31.536v7.146H81.744v-7.146h15.792v-6.417H83.882V2.091h35.043v7.145h-27.17v8.784h27.625v7.1   h-14.017v6.417H121.065z"
    />
    <path
      fill="#231916"
      d="M153.536,22.298c-1.714,0.182-3.512,0.272-5.393,0.272h-15.929v-6.053h3.186V7.734h-2.913V1.636h24.485   v6.099h-3.004v8.556c1.365-0.121,2.563-0.334,3.596-0.638v5.917C156.592,21.873,155.25,22.115,153.536,22.298z M165.255,25.983   c3.215,1.306,4.824,3.398,4.824,6.281s-1.609,4.976-4.824,6.28c-3.217,1.304-7.525,1.957-12.925,1.957   c-5.401,0-9.709-0.653-12.925-1.957c-3.216-1.305-4.824-3.397-4.824-6.28s1.608-4.976,4.824-6.281   c3.216-1.304,7.524-1.957,12.925-1.957C157.73,24.026,162.039,24.68,165.255,25.983z M142.682,16.518h4.005V7.734h-4.005V16.518z    M159.202,33.994c1.729-0.364,2.594-0.94,2.594-1.729c0-0.759-0.865-1.32-2.594-1.685s-4.021-0.546-6.872-0.546   c-2.852,0-5.143,0.182-6.872,0.546c-1.729,0.364-2.594,0.926-2.594,1.685c0,0.789,0.865,1.365,2.594,1.729   c1.729,0.363,4.02,0.546,6.872,0.546C155.182,34.54,157.473,34.357,159.202,33.994z M162.161,19.248h-3.505v-6.144h3.505v-2.64   h-3.505V4.32h3.505v-3.14h7.555V23.39h-7.555V19.248z"
    />
    <path
      fill="#231916"
      d="M198.569,11.102h-26.214V4.548h9.102V0.907h7.919v3.641h9.193V11.102z M189.239,31.445   c1.941,0,3.808-0.129,5.598-0.387c1.79-0.258,3.261-0.645,4.415-1.161v6.781c-1.153,0.516-2.625,0.902-4.415,1.16   c-1.791,0.258-3.717,0.388-5.78,0.388h-16.475v-6.781h9.011v-3.322c-2.428-0.455-4.339-1.343-5.734-2.663   c-1.396-1.319-2.094-3.011-2.094-5.074c0-2.578,1.085-4.573,3.254-5.984s4.999-2.116,8.488-2.116c3.488,0,6.318,0.705,8.487,2.116   s3.254,3.406,3.254,5.984c0,2.094-0.721,3.801-2.162,5.12c-1.441,1.32-3.391,2.207-5.849,2.662V31.445z M182.185,21.91   c0.819,0.35,1.926,0.523,3.322,0.523c1.395,0,2.503-0.174,3.322-0.523c0.819-0.348,1.229-0.856,1.229-1.524   c0-0.667-0.409-1.175-1.229-1.524c-0.819-0.349-1.927-0.523-3.322-0.523c-1.396,0-2.503,0.175-3.322,0.523   c-0.819,0.35-1.229,0.857-1.229,1.524C180.956,21.054,181.366,21.563,182.185,21.91z M213.633,22.479h-4.46v17.567h-7.691V1.181   h7.691v13.835h4.46V22.479z"
    />
    <path
      fill="#231916"
      d="M229.879,31.035c1.941,0,3.809-0.128,5.6-0.387c1.789-0.257,3.26-0.645,4.414-1.16v7.19   c-1.154,0.516-2.625,0.902-4.414,1.16c-1.791,0.258-3.719,0.388-5.781,0.388h-16.475v-7.191h9.012v-5.688   c-2.549-0.729-4.574-2.131-6.076-4.21c-1.502-2.078-2.253-4.573-2.253-7.486c0-2.396,0.516-4.521,1.547-6.371   c1.031-1.851,2.473-3.284,4.324-4.301s3.944-1.525,6.28-1.525s4.438,0.509,6.303,1.525c1.867,1.017,3.33,2.45,4.393,4.301   s1.594,3.975,1.594,6.371c0,2.883-0.768,5.37-2.299,7.464c-1.533,2.094-3.588,3.504-6.168,4.232V31.035z M222.598,9.805   c-0.85,0.986-1.273,2.269-1.273,3.846c0,1.578,0.424,2.86,1.273,3.846c0.85,0.986,2.002,1.479,3.459,1.479s2.641-0.501,3.551-1.502   c0.91-1.002,1.365-2.276,1.365-3.823c0-1.548-0.455-2.821-1.365-3.823c-0.91-1.001-2.094-1.502-3.551-1.502   S223.447,8.819,222.598,9.805z M254.273,22.479h-4.459v17.567h-7.691V1.181h7.691v13.835h4.459V22.479z"
    />
    <path
      fill="#231916"
      d="M288.225,24.346h-23.711V1.636h7.508v4.915h8.693V1.636h7.51v7.509h5.279V1.181h7.691v28.763h-7.691V16.381   h-5.279V24.346z M301.74,33.129v6.918h-35.316V26.621h7.828v6.508H301.74z M280.715,17.929v-5.098h-8.693v5.098H280.715z"
    />
    <path
      fill="#231916"
      d="M327.182,16.836c-1.033,1.548-2.48,2.746-4.348,3.596c-1.865,0.85-4.027,1.274-6.484,1.274   s-4.619-0.425-6.486-1.274c-1.865-0.85-3.314-2.048-4.346-3.596c-1.031-1.547-1.547-3.337-1.547-5.37   c0-2.032,0.516-3.823,1.547-5.37c1.031-1.548,2.48-2.746,4.346-3.596c1.867-0.849,4.029-1.274,6.486-1.274s4.619,0.426,6.484,1.274   c1.867,0.85,3.314,2.048,4.348,3.596c1.031,1.547,1.547,3.338,1.547,5.37C328.729,13.499,328.213,15.289,327.182,16.836z    M337.42,25.188c3.188,1.381,4.779,3.588,4.779,6.622s-1.592,5.24-4.779,6.621c-3.186,1.381-7.434,2.071-12.742,2.071   c-5.311,0-9.557-0.69-12.742-2.071s-4.779-3.587-4.779-6.621s1.594-5.241,4.779-6.622s7.432-2.071,12.742-2.071   C329.986,23.116,334.234,23.807,337.42,25.188z M312.867,14.401c0.834,0.713,1.996,1.069,3.482,1.069s2.646-0.356,3.48-1.069   c0.836-0.713,1.252-1.691,1.252-2.936s-0.416-2.223-1.252-2.936c-0.834-0.713-1.994-1.069-3.48-1.069s-2.648,0.356-3.482,1.069   s-1.25,1.691-1.25,2.936S312.033,13.688,312.867,14.401z M331.367,33.743c1.699-0.409,2.549-1.054,2.549-1.934   c0-0.85-0.857-1.486-2.57-1.912c-1.715-0.424-3.938-0.637-6.668-0.637s-4.953,0.213-6.668,0.637   c-1.713,0.426-2.57,1.063-2.57,1.912c0,0.88,0.85,1.524,2.549,1.934c1.699,0.41,3.928,0.614,6.689,0.614   C327.438,34.357,329.668,34.153,331.367,33.743z M334.281,12.922V9.827h-4.279l-0.455-6.554h4.734V1.181h7.555v21.39h-7.555v-3.095   h-4.734l0.455-6.554H334.281z"
    />
    <path
      fill="#231916"
      d="M367.912,37.794c-1.881,0.288-3.822,0.433-5.824,0.433h-17.387v-7.191h17.705   c1.941,0,3.814-0.128,5.619-0.387c1.807-0.257,3.285-0.645,4.438-1.16v7.1C371.311,37.104,369.793,37.505,367.912,37.794z    M364.568,3.023c1.865,1.047,3.328,2.526,4.391,4.438s1.594,4.111,1.594,6.599c0,2.488-0.531,4.688-1.594,6.6   c-1.063,1.911-2.525,3.391-4.391,4.438c-1.867,1.046-3.998,1.569-6.395,1.569c-2.398,0-4.537-0.523-6.418-1.569   c-1.881-1.047-3.352-2.526-4.414-4.438c-1.063-1.912-1.594-4.111-1.594-6.6c0-2.487,0.531-4.688,1.594-6.599   s2.533-3.391,4.414-4.438s4.02-1.57,6.418-1.57C360.57,1.453,362.701,1.977,364.568,3.023z M354.533,9.941   c-0.91,1.077-1.365,2.45-1.365,4.118c0,1.7,0.455,3.08,1.365,4.142c0.91,1.063,2.123,1.593,3.641,1.593   c1.516,0,2.73-0.538,3.641-1.615s1.365-2.45,1.365-4.119c0-1.668-0.455-3.041-1.365-4.118s-2.125-1.616-3.641-1.616   C356.656,8.325,355.443,8.864,354.533,9.941z M382.385,40.047h-7.691V1.181h7.691V40.047z"
    />
    <path
      fill="#231916"
      d="M419.566,6.688c0,4.732-2.123,8.169-6.371,10.308c-4.248,2.14-9.982,3.209-17.203,3.209v-6.235   c3.096-0.029,5.84-0.288,8.238-0.773c2.396-0.485,4.262-1.16,5.598-2.025c1.334-0.864,2.002-1.843,2.002-2.936V7.825h-15.838V1.636   h23.574V6.688z M432.492,33.175h-27.125v1.547h27.535v5.325h-35.135V28.441h27.125v-1.548h-27.217v-5.324h34.816V33.175z    M432.492,20.204h-7.691V1.181h7.691V20.204z"
    />
  </g>
</svg>